<svg id="Capa_1" enable-background="new 0 0 512 512" height="512" viewBox="0 0 512 512" width="512" xmlns="http://www.w3.org/2000/svg"><g><path d="m317 376h-61c-24.814 0-45-20.186-45-45v-79.438c0-8.291-6.709-15-15-15s-15 6.709-15 15v79.438c0 41.353 33.647 75 75 75h61c8.291 0 15-6.709 15-15s-6.709-15-15-15z" fill="#704c55"/><path d="m332 391c0-8.291-6.709-15-15-15h-61v30h61c8.291 0 15-6.709 15-15z" fill="#5a344b"/><path d="m256 45h-91c-8.291 0-15 6.709-15 15s6.709 15 15 15h91c24.814 0 45 20.186 45 45v31.396c0 8.291 6.709 15 15 15s15-6.709 15-15v-31.396c0-41.353-33.647-75-75-75z" fill="#704c55"/><path d="m301 120v31.396c0 8.291 6.709 15 15 15s15-6.709 15-15v-31.396c0-41.353-33.647-75-75-75v30c24.814 0 45 20.186 45 45z" fill="#5a344b"/><path d="m425.98 287.069-28.975-7.764c-7.998-2.139-12.744-10.371-10.605-18.369 2.153-7.998 10.4-12.686 18.369-10.605l28.975 7.764c7.998 2.139 12.744 10.371 10.605 18.369-2.146 8.058-10.439 12.744-18.369 10.605z" fill="#f9a54c"/><path d="m386.4 191.063c-2.139-7.998 2.607-16.23 10.605-18.369l28.975-7.764c8.013-2.095 16.245 2.593 18.369 10.605 2.139 7.998-2.607 16.23-10.605 18.369l-28.975 7.764c-7.922 2.137-16.22-2.539-18.369-10.605z" fill="#f9a54c"/><path d="m407 512c-57.891 0-105-48.109-105-106s47.109-105 105-105 105 47.109 105 105-47.109 106-105 106z" fill="#6cb"/><path d="m407 482c-41.353 0-75-34.647-75-76s33.647-75 75-75 75 33.647 75 75-33.647 76-75 76z" fill="#efe2dd"/><path d="m437 421c-8.291 0-15-6.709-15-15 0-8.276-6.724-15-15-15s-15 6.724-15 15c0 8.291-6.709 15-15 15s-15-6.709-15-15c0-24.814 20.186-45 45-45s45 20.186 45 45c0 8.291-6.709 15-15 15z" fill="#ff435b"/><path d="m107.23 201.669-28.975-7.764c-7.998-2.139-12.744-10.371-10.605-18.369 2.153-8.013 10.4-12.686 18.369-10.605l28.975 7.764c7.998 2.139 12.744 10.371 10.605 18.369-2.146 8.058-10.439 12.743-18.369 10.605z" fill="#fbc182"/><path d="m67.65 276.464c-2.139-7.998 2.607-16.23 10.605-18.369l28.975-7.764c8.013-2.109 16.245 2.607 18.369 10.605 2.139 7.998-2.607 16.23-10.605 18.369l-28.975 7.764c-7.922 2.137-16.22-2.54-18.369-10.605z" fill="#fbc182"/><path d="m301 133.861c-21.416 0-35.771 10.723-45 22.192-9.229-11.47-23.584-22.192-45-22.192-33.647 0-60 27.803-60 63.311 0 45.659 46.716 75.731 95.244 117.363 2.798 2.402 6.284 3.604 9.756 3.604s6.958-1.201 9.756-3.604c55.143-47.308 95.244-70.509 95.244-117.363 0-35.508-26.353-63.311-60-63.311z" fill="#ff7b4a"/><path d="m361 197.172c0-35.508-26.353-63.311-60-63.311-21.416 0-35.771 10.723-45 22.192v162.085c3.472 0 6.958-1.201 9.756-3.604 55.143-47.307 95.244-70.508 95.244-117.362z" fill="#ff435b"/><path d="m90 120c-50.464 0-90-26.353-90-60s39.536-60 90-60 90 26.353 90 60-39.536 60-90 60z" fill="#73e6d3"/></g></svg>