<svg height="512" viewBox="0 0 512 512" width="512" xmlns="http://www.w3.org/2000/svg"><g id="flat"><circle cx="256" cy="256" fill="#f55648" r="232"/><circle cx="256" cy="256" fill="#c7463b" r="200"/><circle cx="256" cy="256" fill="#a23930" r="176"/><g fill="#fbb540"><circle cx="256" cy="104" r="24"/><circle cx="208" cy="112" r="24"/><circle cx="160" cy="144" r="24"/><circle cx="208" cy="160" r="24"/></g><circle cx="128" cy="184" fill="#ea9d2d" r="24"/><circle cx="112" cy="232" fill="#fbb540" r="24"/><circle cx="112" cy="280" fill="#ea9d2d" r="24"/><circle cx="120" cy="328" fill="#fbb540" r="24"/><circle cx="152" cy="368" fill="#fbb540" r="24"/><circle cx="200" cy="392" fill="#fbb540" r="24"/><circle cx="248" cy="408" fill="#ea9d2d" r="24"/><circle cx="240" cy="360" fill="#fbb540" r="24"/><circle cx="296" cy="400" fill="#fbb540" r="24"/><circle cx="344" cy="376" fill="#ea9d2d" r="24"/><circle cx="288" cy="352" fill="#ea9d2d" r="24"/><circle cx="368" cy="264" fill="#fbb540" r="24"/><circle cx="384" cy="344" fill="#fbb540" r="24"/><circle cx="400" cy="296" fill="#ea9d2d" r="24"/><circle cx="408" cy="248" fill="#fbb540" r="24"/><circle cx="392" cy="200" fill="#ea9d2d" r="24"/><circle cx="368" cy="152" fill="#ea9d2d" r="24"/><circle cx="328" cy="128" fill="#fbb540" r="24"/><circle cx="296" cy="160" fill="#fbb540" r="24"/><circle cx="344" cy="192" fill="#fbb540" r="24"/><circle cx="192" cy="344" fill="#ea9d2d" r="24"/><circle cx="232" cy="312" fill="#fbb540" r="24"/><circle cx="248" cy="192" fill="#fbb540" r="24"/><circle cx="296" cy="208" fill="#ea9d2d" r="24"/><circle cx="248" cy="144" fill="#ea9d2d" r="24"/></g></svg>