<svg height="512" viewBox="0 0 512 512" width="512" xmlns="http://www.w3.org/2000/svg"><g id="flat"><path d="m416 376-32-16-11.2-33.614a21.038 21.038 0 0 0 -19.964-14.386 21.039 21.039 0 0 0 -20.753 24.5l3.917 23.5-32 24 8 104h53.215a56 56 0 0 0 20.8-4l29.985-12h56v-96z" fill="#f5d3bd"/><path d="m328 456h-8a16 16 0 0 0 16-16 16 16 0 0 0 -16-16h-8a16 16 0 0 0 16-16 16 16 0 0 0 -16-16h-32a16 16 0 0 0 -16 16 16 16 0 0 0 16 16h8a16 16 0 0 0 -16 16 16 16 0 0 0 16 16h8a16 16 0 0 0 -16 16 16 16 0 0 0 16 16h32a16 16 0 0 0 16-16 16 16 0 0 0 -16-16z" fill="#e8c8b3"/><rect fill="#007af6" height="224" rx="24" width="192" x="160" y="24"/><path d="m312 392h-88a16 16 0 0 1 -16-16 16 16 0 0 1 16-16h112z" fill="#f5d3bd"/><rect fill="#f5d3bd" height="32" rx="16" width="64" x="256" y="392"/><path d="m336.13 359.954 5.3 15.029c.015.043.03.086.044.129a36.351 36.351 0 0 0 34.526 24.888v16a52.33 52.33 0 0 1 -49.686-35.76l-7.133-20.24z" fill="#e8c8b3"/><path d="m224 304-19.2 25.6a24 24 0 0 0 -4.8 14.4 24 24 0 0 0 24 24 24 24 0 0 0 24-24 24 24 0 0 0 -4.8-14.4z" fill="#f55648"/><path d="m192 56h128v96h-128z" fill="#bce1ff"/><path d="m236 136h-12a8 8 0 0 1 0-16h12a4 4 0 0 0 0-8h-12a8 8 0 0 1 -8-8v-24a8 8 0 0 1 8-8h24a8 8 0 0 1 0 16h-16v8h4a20 20 0 0 1 0 40z" fill="#60b9f3"/><path d="m284 136a20.023 20.023 0 0 1 -20-20v-28a16.019 16.019 0 0 1 16-16h16a8 8 0 0 1 0 16h-16v8h4a20 20 0 0 1 0 40zm-4-24v4a4 4 0 1 0 4-4z" fill="#60b9f3"/><g fill="#0a71cd"><rect height="32" rx="16" width="48" x="232" y="184"/><path d="m208 200h-16a8 8 0 0 1 0-16h16a8 8 0 0 1 0 16z"/><path d="m208 224h-16a8 8 0 0 1 0-16h16a8 8 0 0 1 0 16z"/><path d="m320 224h-16a8 8 0 0 1 0-16h16a8 8 0 0 1 0 16z"/><path d="m320 200h-16a8 8 0 0 1 0-16h16a8 8 0 0 1 0 16z"/></g><path d="m240 248h32v72h-32z" fill="#ebebeb"/><path d="m240 280h32v16h-32z" fill="#f55648"/><path d="m144 337.646h24v16h-24z" fill="#bce1ff"/><path d="m174 389.608h24v16h-24z" fill="#bce1ff" transform="matrix(.5 -.866 .866 .5 -251.339 359.885)"/><path d="m178 281.684h16v24h-16z" fill="#bce1ff" transform="matrix(.866 -.5 .5 .866 -121.921 132.343)"/><rect fill="#f5d3bd" height="32" rx="16" width="64" x="264" y="424"/><rect fill="#f5d3bd" height="32" rx="16" width="64" x="272" y="456"/></g></svg>