<svg id="Capa_1" enable-background="new 0 0 512 512" height="512" viewBox="0 0 512 512" width="512" xmlns="http://www.w3.org/2000/svg"><g><path clip-rule="evenodd" d="m164.401 473.985 9.241-40.706-9.241-51.477-21.401-8.957h-18.538v56.495c0 8.731-.198 10.432-8.957 12.699-14.343 3.685-31.067 16.838-28.686 31.947h77.582z" fill="#ffeee6" fill-rule="evenodd"/></g><g><g><path d="m288.428 15.453h-84.509c-4.267 0-7.726-3.459-7.726-7.726s3.459-7.727 7.726-7.727h84.509c4.267 0 7.726 3.459 7.726 7.726s-3.459 7.727-7.726 7.727z" fill="#c3ddff"/></g><g><path clip-rule="evenodd" d="m250.233 225.907-19.565-13.871-17.638 13.871-6.716 28.297 6.716 29.874c2.219 9.987 8.352 18.631 18.601 18.631 10.22 0 18.601-8.381 18.601-18.631v-58.171z" fill="#ffeee6" fill-rule="evenodd"/></g><g><path clip-rule="evenodd" d="m110.242 225.907-18.601-9.753-18.63 9.753v58.171c0 10.25 8.381 18.631 18.63 18.631 10.22 0 18.601-8.381 18.601-18.631l9.286-27.83z" fill="#ffeee6" fill-rule="evenodd"/></g><g><path clip-rule="evenodd" d="m213.031 284.083v90.254c0 2.833-2.338 5.141-5.141 5.141h-92.51c-2.833 0-5.141-2.308-5.141-5.141v-90.254l51.396-15.37z" fill="#7e707d" fill-rule="evenodd"/></g><g><path clip-rule="evenodd" d="m135.443 148.201c-38.75 0-62.432 27.946-62.432 68.625v9.082h37.232v58.171h102.787v-58.171h37.202v-9.082c0-40.679-23.682-68.625-62.403-68.625-11.563 24.763-40.648 26.194-52.386 0z" fill="#ff8086" fill-rule="evenodd"/></g><g><path clip-rule="evenodd" d="m135.91 148.551c-.175-.117-.321-.234-.467-.35v10.571c0 15.857 11.768 28.822 26.194 28.822 14.396 0 26.194-12.966 26.194-28.822v-10.571c-19.595-13.696-35.802-11.156-51.921.35z" fill="#ffcebf" fill-rule="evenodd"/></g><g><path clip-rule="evenodd" d="m211.979 441.535c-8.994-2.336-9.198-4.088-9.198-13.083v-48.972h-14.425-26.719v94.965h79.924c2.452-15.564-14.806-29.113-29.582-32.91z" fill="#ffeee6" fill-rule="evenodd"/></g><g><path clip-rule="evenodd" d="m202.781 428.453v-48.972h-14.425v61.441c0 8.965.204 10.746 9.228 13.053 10.6 2.745 22.514 10.542 27.449 20.471h16.528c2.453-15.565-14.805-29.114-29.581-32.911-8.995-2.336-9.199-4.088-9.199-13.082z" fill="#ffdfcf" fill-rule="evenodd"/></g><g><path clip-rule="evenodd" d="m142.071 379.481h19.565v94.965h-19.565z" fill="#ffdfcf" fill-rule="evenodd"/></g><g><path clip-rule="evenodd" d="m178.806 153.428c20.09-9.345 35.947-31.538 35.947-49.468v-16.237c-21.521-1.489-18.309-28.764-33.143-24.939-11.476 2.949-15.71 4.439-19.974 4.439s-8.498-1.489-19.974-4.439c-14.834-3.825-11.651 23.449-33.143 24.939v16.236c0 17.93 15.827 40.124 35.918 49.468 1.285.584 2.57 1.139 3.884 1.635 4.818 1.781 9.052 2.657 13.316 2.657 4.234 0 8.498-.876 13.287-2.657 1.313-.495 2.627-1.05 3.882-1.634z" fill="#ffeee6" fill-rule="evenodd"/></g><g><path clip-rule="evenodd" d="m214.753 87.723c0-39.452-26.573-59.426-53.117-59.864-26.573.438-53.117 20.412-53.117 59.864 21.492-1.489 18.309-17.93 33.143-14.105 11.476 2.949 15.71 4.439 19.974 4.439s8.498-1.489 19.974-4.439c14.834-3.825 11.622 12.616 33.143 14.105z" fill="#7e707d" fill-rule="evenodd"/></g><g><path clip-rule="evenodd" d="m433.562 41.382v433.068l-48.944 18.543-42.289-18.543v-433.068l40.826-18.543z" fill="#edf4ff" fill-rule="evenodd"/></g><g><path clip-rule="evenodd" d="m446.057 5.198c0-2.862-2.336-5.198-5.198-5.198h-152.431v20.675c0 11.389 9.286 20.704 20.675 20.704h33.231 40.823 50.401 7.3c2.862 0 5.198-2.365 5.198-5.198v-30.983z" fill="#f9f7f8" fill-rule="evenodd"/></g><g><path clip-rule="evenodd" d="m433.558 474.446h-91.225-79.749-76.011-76.011-57.818c-10.308 0-18.747 8.439-18.747 18.777v13.725c0 2.774 2.248 5.052 5.023 5.052h433.376c3.095 0 5.607-2.541 5.607-5.607v-26.34c0-3.095-2.511-5.607-5.607-5.607z" fill="#7e707d" fill-rule="evenodd"/></g><g><path clip-rule="evenodd" d="m214.753 87.723c0-32.94-18.543-52.33-40.123-58.083 12.878 9.199 22.222 24.851 23.04 46.957.029 1.022.058 2.073.058 3.125v.993c3.476 3.212 8.119 6.395 17.025 7.008z" fill="#6a5d6a" fill-rule="evenodd"/></g><g><path clip-rule="evenodd" d="m214.753 103.959v-16.236c-8.906-.613-13.549-3.796-17.024-7.008v15.273c0 17.901-15.827 40.124-35.918 49.468-1.285.584-2.57 1.11-3.884 1.606-4.818 1.781-9.052 2.687-13.316 2.687-2.833 0-5.694-.409-8.702-1.197 2.716 1.869 5.577 3.504 8.527 4.877 1.285.584 2.57 1.139 3.884 1.635 4.818 1.781 9.052 2.657 13.316 2.657 4.234 0 8.498-.876 13.287-2.657 1.314-.496 2.628-1.051 3.884-1.635 20.09-9.346 35.946-31.54 35.946-49.47z" fill="#ffdfcf" fill-rule="evenodd"/></g><g><path clip-rule="evenodd" d="m446.057 36.181v-30.983c0-2.862-2.336-5.198-5.198-5.198h-34.341c2.862 0 5.198 2.336 5.198 5.198v30.983c0 2.833-2.336 5.198-5.198 5.198h27.04 7.3c2.862 0 5.199-2.365 5.199-5.198z" fill="#f0f0f0" fill-rule="evenodd"/></g><g><path clip-rule="evenodd" d="m433.558 474.446v-433.067h-27.04-7.3v433.067z" fill="#dbeaff" fill-rule="evenodd"/></g><g><path clip-rule="evenodd" d="m250.233 225.907h-18.601v58.171c0 6.862-3.767 12.878-9.315 16.12 2.745 1.577 5.928 2.511 9.315 2.511 10.22 0 18.601-8.381 18.601-18.631z" fill="#ffdfcf" fill-rule="evenodd"/></g><g><path clip-rule="evenodd" d="m110.242 225.907h-18.601v58.171c0 6.862-3.767 12.878-9.315 16.12 2.745 1.577 5.928 2.511 9.315 2.511 10.22 0 18.601-8.381 18.601-18.631z" fill="#ffdfcf" fill-rule="evenodd"/></g><g><path clip-rule="evenodd" d="m478.003 506.393v-26.34c0-3.095-2.511-5.607-5.607-5.607h-34.312c3.066 0 5.577 2.511 5.577 5.607v26.34c0 3.066-2.511 5.607-5.577 5.607h34.312c3.095 0 5.607-2.541 5.607-5.607z" fill="#6a5d6a" fill-rule="evenodd"/></g><g><path clip-rule="evenodd" d="m213.03 374.341v-81.999-8.264h-19.536v8.264 81.999c0 2.833-2.307 5.14-5.139 5.14h14.425 5.11c2.804 0 5.14-2.307 5.14-5.14z" fill="#6a5d6a" fill-rule="evenodd"/></g><path d="m177.288 316.65h-15.59c-.021 0-.041-.003-.062-.003s-.041.003-.062.003h-15.589c-4.267 0-7.726 3.459-7.726 7.726s3.459 7.726 7.726 7.726h7.925v47.375h15.453v-47.375h7.926c4.267 0 7.726-3.459 7.726-7.726s-3.46-7.726-7.727-7.726z" fill="#6a5d6a"/><g><path d="m342.329 92.418h36.654c4.265 0 7.726-3.461 7.726-7.726 0-4.275-3.461-7.726-7.726-7.726h-36.654z" fill="#c3ddff"/></g><g><path d="m370.062 127.99c0 4.275-3.461 7.726-7.726 7.726h-20.006v-15.453h20.006c4.264 0 7.726 3.462 7.726 7.727z" fill="#c3ddff"/></g><g><path d="m342.329 179.025h36.654c4.265 0 7.726-3.461 7.726-7.726s-3.461-7.726-7.726-7.726h-36.654z" fill="#c3ddff"/></g><g><path d="m370.062 214.607c0 4.265-3.461 7.726-7.726 7.726h-20.006v-15.453h20.006c4.264.001 7.726 3.462 7.726 7.727z" fill="#c3ddff"/></g><g><path d="m386.709 257.916c0 4.265-3.461 7.726-7.726 7.726h-36.654v-15.452h36.654c4.265 0 7.726 3.451 7.726 7.726z" fill="#c3ddff"/></g><g><path d="m342.329 308.941h20.006c4.265 0 7.726-3.451 7.726-7.726 0-4.265-3.461-7.726-7.726-7.726h-20.006z" fill="#c3ddff"/></g><g><path d="m386.709 344.523c0 4.275-3.461 7.726-7.726 7.726h-36.654v-15.453h36.654c4.265.001 7.726 3.463 7.726 7.727z" fill="#c3ddff"/></g><g><path d="m370.062 387.832c0 4.265-3.461 7.726-7.726 7.726h-20.006v-15.453h20.006c4.264.001 7.726 3.462 7.726 7.727z" fill="#c3ddff"/></g><g><path d="m386.709 431.141c0 4.265-3.461 7.726-7.726 7.726h-36.654v-15.453h36.654c4.265.001 7.726 3.462 7.726 7.727z" fill="#c3ddff"/></g><g><path clip-rule="evenodd" d="m250.233 216.825c0-40.679-23.682-68.625-62.403-68.625 40.152 19.069 42.167 48.621 43.802 77.707h18.601z" fill="#e5646e" fill-rule="evenodd"/></g><g><path clip-rule="evenodd" d="m213.03 227.543c-10.104 0-19.536 5.402-19.536 13.842v42.693h19.536z" fill="#e5646e" fill-rule="evenodd"/></g></g></svg>