<?xml version="1.0" encoding="iso-8859-1"?>
<!-- Generator: Adobe Illustrator 19.0.0, SVG Export Plug-In . SVG Version: 6.00 Build 0)  -->
<svg version="1.1" id="Capa_1" xmlns="http://www.w3.org/2000/svg" xmlns:xlink="http://www.w3.org/1999/xlink" x="0px" y="0px"
	 viewBox="0 0 512 512" style="enable-background:new 0 0 512 512;" xml:space="preserve">
<path style="fill:#57555C;" d="M421,330v15c0,24.899-20.099,45-45,45H136c-24.901,0-45-20.101-45-45v-15l30-30h270L421,330z"/>
<path style="fill:#3C3A41;" d="M421,330v15c0,24.899-20.099,45-45,45H256v-90h135L421,330z"/>
<path style="fill:#FD3018;" d="M451,66.299V173.7c0,17.701-6.899,34.501-19.501,46.8C424.9,227.399,421,236.4,421,246.299V330H91
	v-83.701c0-9.899-3.9-18.9-10.499-25.8C67.899,208.2,61,191.4,61,173.699v-107.4C61,29.7,90.7,0,127.301,0H384.7
	C421.3,0,451,29.7,451,66.299z"/>
<path style="fill:#B80000;" d="M451,66.299V173.7c0,17.701-6.899,34.501-19.501,46.8C424.9,227.399,421,236.4,421,246.299V330H256V0
	h128.699C421.3,0,451,29.7,451,66.299z"/>
<path style="fill:#EFE6DE;" d="M346,60H166c-24.901,0-45,20.099-45,45v30c0,24.899,20.099,45,45,45h180c24.901,0,45-20.101,45-45
	v-30C391,80.099,370.901,60,346,60z"/>
<path style="fill:#DFCCBF;" d="M346,180h-90V60h90c24.901,0,45,20.099,45,45v30C391,159.899,370.901,180,346,180z"/>
<path style="fill:#EFE6DE;" d="M346,270H166c-8.401,0-15,6.599-15,15v182c0,24.899,20.099,45,45,45h120c24.901,0,45-20.101,45-45
	V285C361,276.599,354.401,270,346,270z"/>
<path style="fill:#FD3018;" d="M295,382.5l-26.1-45c-2.699-4.501-7.8-6.901-12.9-6.901S245.799,333,243.1,337.5l-26.1,45
	c-3.9,6.899-6,14.7-6,22.5c0,24.899,20.099,45,45,45s45-20.101,45-45C301,397.2,298.9,389.399,295,382.5z"/>
<g>
	<circle style="fill:#57555C;" cx="196" cy="225" r="15"/>
	<path style="fill:#57555C;" d="M271,225c0,8.399-6.599,15-15,15s-15-6.601-15-15c0-8.401,6.599-15,15-15S271,216.599,271,225z"/>
</g>
<circle style="fill:#3C3A41;" cx="316" cy="225" r="15"/>
<path style="fill:#DFCCBF;" d="M361,285v182c0,24.899-20.099,45-45,45h-60V270h90C354.401,270,361,276.599,361,285z"/>
<path style="fill:#3C3A41;" d="M256,240v-30c8.401,0,15,6.599,15,15C271,233.399,264.401,240,256,240z"/>
<path style="fill:#B80000;" d="M301,405c0,24.899-20.099,45-45,45V330.599c5.099,0,10.201,2.401,12.9,6.901l26.1,45
	C298.9,389.399,301,397.2,301,405z"/>
<g>
</g>
<g>
</g>
<g>
</g>
<g>
</g>
<g>
</g>
<g>
</g>
<g>
</g>
<g>
</g>
<g>
</g>
<g>
</g>
<g>
</g>
<g>
</g>
<g>
</g>
<g>
</g>
<g>
</g>
</svg>
