<?xml version="1.0" encoding="iso-8859-1"?>
<!-- Generator: Adobe Illustrator 19.0.0, SVG Export Plug-In . SVG Version: 6.00 Build 0)  -->
<svg version="1.1" id="Capa_1" xmlns="http://www.w3.org/2000/svg" xmlns:xlink="http://www.w3.org/1999/xlink" x="0px" y="0px"
	 viewBox="0 0 512.001 512.001" style="enable-background:new 0 0 512.001 512.001;" xml:space="preserve">
<path style="fill:#76B7EB;" d="M452.729,499.439H59.271C26.536,499.439,0,472.902,0,440.168V71.834
	C0,39.1,26.536,12.563,59.271,12.563H452.73c32.734,0,59.271,26.536,59.271,59.271v368.334
	C512,472.902,485.464,499.439,452.729,499.439z"/>
<path style="fill:#B3E7FF;" d="M0,286.48v153.688c0,32.734,26.536,59.271,59.271,59.271H452.73
	c32.734,0,59.271-26.536,59.271-59.271V286.48H0z"/>
<path style="fill:#FFFFFF;" d="M328.116,141.989H183.884c-8.229,0-14.901-6.671-14.901-14.901v-56.74
	c0-8.229,6.671-14.901,14.901-14.901h144.231c8.229,0,14.901,6.671,14.901,14.901v56.74
	C343.016,135.318,336.345,141.989,328.116,141.989z"/>
<path style="fill:#7FDBD5;" d="M311.639,141.989c0-30.728-24.91-55.639-55.639-55.639s-55.639,24.91-55.639,55.639H311.639z"/>
<path style="fill:#495059;" d="M255.993,149.49c-1.304,0-2.626-0.34-3.828-1.056c-3.56-2.118-4.728-6.721-2.61-10.28l31.769-53.387
	c2.118-3.561,6.719-4.729,10.281-2.61c3.56,2.118,4.728,6.721,2.61,10.28l-31.769,53.387
	C261.043,148.182,258.55,149.49,255.993,149.49z"/>
<path style="fill:#B3E7FF;" d="M328.116,149.489H183.884c-12.352,0-22.4-10.049-22.4-22.4V70.35c0-12.353,10.049-22.401,22.4-22.401
	h144.231c12.352,0,22.4,10.049,22.4,22.401v56.739C350.516,139.439,340.467,149.489,328.116,149.489z M183.884,62.948
	c-4.081,0-7.4,3.32-7.4,7.401v56.739c0,4.081,3.32,7.4,7.4,7.4h144.231c4.081,0,7.4-3.319,7.4-7.4V70.35
	c0-4.081-3.32-7.401-7.4-7.401L183.884,62.948L183.884,62.948z"/>
<path style="fill:#38648C;" d="M130.804,437.549c-34.233-35.173-69.327-96.673-57.036-188.748
	c4.219-31.604,27.22-60.798,60.798-60.798s56.434,24.632,60.798,60.798c3.457,28.654-3.847,47.86-9.755,72.686
	c-8.161,34.29,12.797,57.39,12.797,88.06c0,21.871-17.73,39.6-39.6,39.6C147.87,449.148,137.97,444.715,130.804,437.549z"/>
<path style="opacity:0.1;enable-background:new    ;" d="M158.805,434.148c-6.541,0-12.691-2.535-17.33-7.141
	c-18.843-19.383-33.163-42.153-42.559-67.676c-12.062-32.764-15.521-69.284-10.279-108.546
	c3.169-23.744,19.964-47.782,45.929-47.782c25.149,0,42.31,17.792,45.906,47.595c2.505,20.762-1.327,35.595-6.178,54.374
	c-1.08,4.179-2.196,8.499-3.277,13.042c-5.722,24.042,0.396,43.305,5.793,60.301c3.392,10.682,6.596,20.771,6.596,31.233
	C183.405,423.112,172.37,434.148,158.805,434.148z"/>
<path style="fill:#38648C;" d="M381.196,437.549c34.233-35.173,69.327-96.673,57.035-188.748
	c-4.219-31.604-27.22-60.798-60.798-60.798S321,212.635,316.636,248.801c-3.458,28.654,3.846,47.86,9.755,72.686
	c8.161,34.29-12.796,57.39-12.796,88.06c0,21.871,17.729,39.6,39.6,39.6C364.13,449.148,374.03,444.715,381.196,437.549z"/>
<path style="opacity:0.1;enable-background:new    ;" d="M353.195,434.148c-13.564,0-24.6-11.035-24.6-24.6
	c0-10.463,3.204-20.552,6.596-31.233c5.398-16.996,11.515-36.259,5.793-60.3c-1.082-4.544-2.198-8.864-3.277-13.043
	c-4.852-18.779-8.684-33.612-6.178-54.374c3.596-29.803,20.757-47.595,45.906-47.595c25.965,0,42.76,24.038,45.929,47.782
	c5.241,39.262,1.783,75.782-10.279,108.546c-9.396,25.522-23.716,48.293-42.559,67.676
	C365.886,431.612,359.735,434.148,353.195,434.148z"/>
<g>
	<path style="fill:#38648C;" d="M0,414.926v25.242c0,32.734,26.536,59.271,59.271,59.271h25.242l0,0
		C84.512,452.764,46.675,414.926,0,414.926L0,414.926z"/>
	<path style="fill:#38648C;" d="M512,414.926v25.242c0,32.734-26.536,59.271-59.271,59.271h-25.242l0,0
		C427.488,452.764,465.325,414.926,512,414.926L512,414.926z"/>
</g>
<g>
	<circle style="fill:#B3E7FF;" cx="114.31" cy="72.681" r="15.399"/>
	<circle style="fill:#B3E7FF;" cx="56.856" cy="72.681" r="15.399"/>
	<circle style="fill:#B3E7FF;" cx="114.31" cy="125.331" r="15.399"/>
	<circle style="fill:#B3E7FF;" cx="56.856" cy="125.331" r="15.399"/>
	<circle style="fill:#B3E7FF;" cx="397.69" cy="72.681" r="15.399"/>
	<circle style="fill:#B3E7FF;" cx="455.14" cy="72.681" r="15.399"/>
	<circle style="fill:#B3E7FF;" cx="397.69" cy="125.331" r="15.399"/>
	<circle style="fill:#B3E7FF;" cx="455.14" cy="125.331" r="15.399"/>
</g>
<path style="opacity:0.1;enable-background:new    ;" d="M305.633,499.439C124.037,397.734,74.339,112.464,127.792,12.563H59.271
	C26.536,12.563,0,39.1,0,71.834v368.334c0,32.734,26.536,59.271,59.271,59.271L305.633,499.439L305.633,499.439z"/>
<g>
</g>
<g>
</g>
<g>
</g>
<g>
</g>
<g>
</g>
<g>
</g>
<g>
</g>
<g>
</g>
<g>
</g>
<g>
</g>
<g>
</g>
<g>
</g>
<g>
</g>
<g>
</g>
<g>
</g>
</svg>
