<svg id="Capa_1" enable-background="new 0 0 496.941 496.941" height="512" viewBox="0 0 496.941 496.941" width="512" xmlns="http://www.w3.org/2000/svg"><g><path d="m313.271 113.348-47.51-24.61v-66.78h-97.58v66.78l-47.51 24.61c-15.17 7.86-24.7 23.52-24.7 40.61v67.13c0 17.06 9.49 32.7 24.63 40.57v37.231h184.089l8.651-37.231c15.14-7.87 24.63-23.51 24.63-40.57v-67.13c0-17.09-9.53-32.75-24.7-40.61z" fill="#d4f2f6"/><g><g><g id="XMLID_132_"><g><path d="m313.341 438.118v-25.671h-178.423l-14.317 25.671c-13.6 0-24.63 11.03-24.63 24.63v9.56c0 13.61 11.03 24.63 24.63 24.63h192.74c13.6 0 24.63-11.02 24.63-24.63v-9.56c0-13.6-11.03-24.63-24.63-24.63z" fill="#d4f2f6"/><path d="m313.341 320.478v-29.41h-173.756l-18.985 29.41c-13.6 0-24.63 11.03-24.63 24.63v9.56c0 13.6 11.03 24.63 24.63 24.63v29.41h181.266l11.474-29.41c13.6 0 24.63-11.03 24.63-24.63v-9.56c.001-13.6-11.029-24.63-24.629-24.63z" fill="#d4f2f6"/><g fill="#a6e7f0"><path d="m142.035 354.668v-9.56c0-13.6 11.03-24.63 24.63-24.63l18.985-29.41h-46.064l-18.985 29.41c-13.6 0-24.63 11.03-24.63 24.63v9.56c0 13.6 11.03 24.63 24.63 24.63v29.41h46.064v-29.41c-13.6 0-24.63-11.03-24.63-24.63z"/><path d="m142.035 472.308v-9.56c0-13.6 11.03-24.63 24.63-24.63l14.317-25.671h-46.064l-14.317 25.671c-13.6 0-24.63 11.03-24.63 24.63v9.56c0 13.61 11.03 24.63 24.63 24.63h46.064c-13.6 0-24.63-11.02-24.63-24.63z"/><path d="m313.341 320.478v-29.41h-128.572l5.594 117.64h111.504l11.474-29.41c13.6 0 24.63-11.03 24.63-24.63v-9.56c0-13.6-11.03-24.63-24.63-24.63z"/><path d="m313.341 438.118v-25.671h-122.8l2.505 52.683c.575 12.091 5.054 23.084 12.174 31.808h108.121c13.6 0 24.63-11.02 24.63-24.63v-9.56c0-13.6-11.03-24.63-24.63-24.63z"/><path d="m337.971 403.928v9.56c0 13.6-11.03 24.63-24.63 24.63h-192.74c-13.6 0-24.63-11.03-24.63-24.63v-9.56c0-13.6 11.03-24.63 24.63-24.63h192.74c13.6 0 24.63 11.03 24.63 24.63z"/><path d="m209.31 21.958h-41.129v66.78l-47.51 24.61c-15.17 7.86-24.7 23.52-24.7 40.61v67.13c0 17.06 9.49 32.7 24.63 40.57v37.231h45.896v-26.972c-15.14-7.87-24.63-23.51-24.63-40.57v-67.13c0-17.09 9.53-32.75 24.7-40.61l43.031-22.29c2.752-1.425 4.479-4.266 4.479-7.364 0-6.49 5.261-11.751 11.751-11.751h39.933v-49.985-10.259z"/><path d="m208.421 222.625c-6.982 0-13.75 2.898-18.568 7.951s-7.392 11.951-7.061 18.926l2.348 49.388h119.55l8.651-37.231c14.683-7.632 24.024-22.577 24.577-39.034z"/><path d="m337.971 286.288v9.56c0 13.6-11.03 24.63-24.63 24.63h-192.74c-13.6 0-24.63-11.03-24.63-24.63v-9.56c0-13.6 11.03-24.63 24.63-24.63h192.74c13.6 0 24.63 11.03 24.63 24.63z"/></g><path d="m142.035 413.488v-9.56c0-13.6 11.03-24.63 24.63-24.63h-46.064c-13.6 0-24.63 11.03-24.63 24.63v9.56c0 13.6 11.03 24.63 24.63 24.63h46.064c-13.6 0-24.63-11.03-24.63-24.63z" fill="#6bd9e7"/><path d="m142.035 295.848v-9.56c0-13.6 11.03-24.63 24.63-24.63h-46.064c-13.6 0-24.63 11.03-24.63 24.63v9.56c0 13.6 11.03 24.63 24.63 24.63h46.064c-13.6 0-24.63-11.03-24.63-24.63z" fill="#6bd9e7"/></g></g></g><path d="m267.62 67.201h-104.179c-9.478 0-17.161-7.683-17.161-17.161v-32.879c0-9.478 7.684-17.161 17.161-17.161h104.179c9.478 0 17.161 7.683 17.161 17.161v32.879c0 9.478-7.683 17.161-17.161 17.161z" fill="#efedef"/><path d="m313.341 379.298h-124.377l2.797 58.82h121.579c13.6 0 24.63-11.03 24.63-24.63v-9.56c.001-13.6-11.029-24.63-24.629-24.63z" fill="#6bd9e7"/><path d="m313.341 261.658h-129.97l2.797 58.82h127.173c13.6 0 24.63-11.03 24.63-24.63v-9.56c0-13.6-11.03-24.63-24.63-24.63z" fill="#6bd9e7"/><path d="m356.355 496.941h-108.976c-18.36 0-33.483-14.421-34.355-32.76l-10.254-215.629c-.153-3.227 2.421-5.927 5.651-5.927h186.891c3.23 0 5.805 2.7 5.651 5.927l-10.253 215.629c-.872 18.339-15.995 32.76-34.355 32.76z" fill="#f9f7f8"/><g id="XMLID_133_"><g><path d="m367.142 328.219-2.902 60.96-17.39 7.07c-6.14 2.5-12.62 3.73-19.07 3.73-8.81 0-17.57-2.29-25.38-6.82-13.32-7.72-29.42-8.96-43.76-3.38l-18.77 7.31h-.01l-3.272-68.87c-.2-4.214 3.162-7.74 7.381-7.74h115.792c4.219-.001 7.582 3.526 7.381 7.74z" fill="#d4f2f6"/><path d="m364.241 389.178-3.36 70.72c-.19 3.94-3.44 7.04-7.39 7.04h-103.25c-3.95 0-7.2-3.1-7.39-7.04l-2.99-62.81h.01l18.77-7.31c14.34-5.58 30.44-4.34 43.76 3.38 7.81 4.53 16.57 6.82 25.38 6.82 6.45 0 12.93-1.23 19.07-3.73z" fill="#a6e7f0"/></g></g></g></g></svg>