<?xml version="1.0" encoding="iso-8859-1"?>
<!-- Generator: Adobe Illustrator 19.0.0, SVG Export Plug-In . SVG Version: 6.00 Build 0)  -->
<svg version="1.1" id="Capa_1" xmlns="http://www.w3.org/2000/svg" xmlns:xlink="http://www.w3.org/1999/xlink" x="0px" y="0px"
	 viewBox="0 0 512 512" style="enable-background:new 0 0 512 512;" xml:space="preserve">
<g>
	<path style="fill:#F2BB80;" d="M257.237,83.244l10.381-24.364c7.645-17.938,28.381-26.289,46.327-18.653l0,0
		c17.938,7.645,26.289,28.381,18.653,46.327l-10.381,24.364c-7.645,17.938-28.381,26.289-46.327,18.653l0,0
		C257.943,121.918,249.601,101.182,257.237,83.244z"/>
	<polygon style="fill:#F2BB80;" points="141.225,476.69 186.157,477.219 213.346,379.586 161.705,379.586 	"/>
</g>
<g>
	<path style="fill:#DE4C3C;" d="M114.742,500.524L114.742,500.524c0,6.338,5.138,11.476,11.476,11.476h50.317l9.71-34.781
		l-45.021-0.53l-21.363,14.212C116.657,493.056,114.733,496.666,114.742,500.524z"/>
	<path style="fill:#DE4C3C;" d="M317.776,476.69h-45.109l9.799,35.31h50.317c6.338,0,11.476-5.138,11.476-11.476l0,0
		c0.009-3.858-1.916-7.468-5.12-9.622L317.776,476.69z"/>
</g>
<g>
	<polygon style="fill:#F2BB80;" points="296.237,379.586 245.655,379.586 272.667,476.69 317.776,476.69 	"/>
	<path style="fill:#F2BB80;" d="M178.83,73.799l77.153-42.99L238.769,0l-81.39,44.138c-10.284,5.553-17.77,15.157-20.657,26.483
		c-2.728,11.158-0.812,22.943,5.297,32.662l21.716,40.96l38.047-28.778L178.83,73.799z"/>
</g>
<polygon style="fill:#666666;" points="282.466,317.793 176.535,308.966 161.705,379.586 213.346,379.586 220.673,353.103 
	238.328,353.103 245.655,379.586 296.237,379.586 "/>
<polygon style="fill:#DE4C3C;" points="220.673,150.069 201.782,115.641 163.735,144.419 185.363,185.379 185.363,247.172 
	176.535,308.966 282.466,317.793 308.949,167.724 "/>
<path style="fill:#595959;" d="M201.429,310.996c-10.417,13.692-21.681,26.721-33.721,39.018l-6.003,29.572h51.641l7.327-26.483
	h17.655l7.327,26.483h50.582l-13.771-61.793L201.429,310.996z"/>
<g>
	<path style="fill:#CF4737;" d="M282.466,317.793l26.483-150.069l-24.541-4.943c-21.327,52.692-49.205,102.488-82.979,148.215
		L282.466,317.793z"/>
	<polygon style="fill:#CF4737;" points="308.949,167.724 301.534,209.743 327.398,228.458 350.88,197.12 	"/>
</g>
<path style="fill:#F2BB80;" d="M381.6,218.571l-30.72-21.451l-23.481,31.338l25.688,18.714l-63.117,28.072l-7.503,42.549
	l91.366-35.31c18.838-7.247,28.231-28.398,20.974-47.236c-2.622-6.806-7.221-12.676-13.206-16.852V218.571z"/>
<g>
</g>
<g>
</g>
<g>
</g>
<g>
</g>
<g>
</g>
<g>
</g>
<g>
</g>
<g>
</g>
<g>
</g>
<g>
</g>
<g>
</g>
<g>
</g>
<g>
</g>
<g>
</g>
<g>
</g>
</svg>
