<?xml version="1.0" encoding="iso-8859-1"?>
<!-- Generator: Adobe Illustrator 19.0.0, SVG Export Plug-In . SVG Version: 6.00 Build 0)  -->
<svg version="1.1" id="Capa_1" xmlns="http://www.w3.org/2000/svg" xmlns:xlink="http://www.w3.org/1999/xlink" x="0px" y="0px"
	 viewBox="0 0 512 512" style="enable-background:new 0 0 512 512;" xml:space="preserve">
<rect x="100.94" y="303.08" style="fill:#FEC674;" width="310.12" height="87.73"/>
<rect x="255.07" y="303.08" style="fill:#FFB94F;" width="156" height="87.73"/>
<path style="fill:#FEC674;" d="M411.061,297.864H100.939v-40.476c0-85.638,69.423-155.061,155.061-155.061l0,0
	c85.638,0,155.061,69.423,155.061,155.061V297.864z"/>
<path style="fill:#FFB94F;" d="M411.061,297.864H256V102.326l0,0c85.638,0,155.061,69.423,155.061,155.061V297.864z"/>
<path style="fill:#984D00;" d="M399.681,267.515H112.319c-16.761,0-30.348,13.587-30.348,30.348l0,0
	c0,16.761,13.587,30.348,30.348,30.348h287.362c16.761,0,30.348-13.587,30.348-30.348l0,0
	C430.029,281.103,416.442,267.515,399.681,267.515z"/>
<path style="fill:#723802;" d="M399.681,267.515H255.066v60.697h144.615c16.761,0,30.348-13.587,30.348-30.348l0,0
	C430.029,281.103,416.442,267.515,399.681,267.515z"/>
<path style="fill:#FF6536;" d="M0,256c0,68.38,26.629,132.667,74.98,181.02C123.333,485.371,187.62,512,256,512
	s132.667-26.629,181.02-74.98C485.371,388.667,512,324.38,512,256s-26.629-132.667-74.98-181.02C388.667,26.629,324.38,0,256,0
	S123.333,26.629,74.98,74.98C26.629,123.333,0,187.62,0,256z M256,482c-55.339,0-107.632-19.768-148.845-55.942l318.902-318.902
	C462.232,148.367,482,200.661,482,256c0,60.367-23.508,117.12-66.194,159.806S316.367,482,256,482z M30,256
	c0-60.367,23.508-117.12,66.194-159.806S195.633,30,256,30c55.339,0,107.632,19.768,148.845,55.942L85.943,404.845
	C49.768,363.633,30,311.339,30,256z"/>
<path style="fill:#FF421D;" d="M437.02,74.98C388.667,26.629,324.38,0,256,0v30c55.339,0,107.632,19.768,148.845,55.942L256,234.787
	v42.426l170.057-170.057C462.232,148.367,482,200.661,482,256c0,60.367-23.508,117.12-66.194,159.806S316.367,482,256,482v30
	c68.38,0,132.667-26.629,181.02-74.98C485.371,388.667,512,324.38,512,256S485.371,123.333,437.02,74.98z"/>
<circle style="fill:#FFB94F;" cx="256" cy="175.78" r="15"/>
<path style="fill:#FFA900;" d="M271,175.782c0,8.284-6.716,15-15,15v-30C264.284,160.782,271,167.498,271,175.782z"/>
<circle style="fill:#FFB94F;" cx="211.63" cy="210.2" r="15"/>
<g>
</g>
<g>
</g>
<g>
</g>
<g>
</g>
<g>
</g>
<g>
</g>
<g>
</g>
<g>
</g>
<g>
</g>
<g>
</g>
<g>
</g>
<g>
</g>
<g>
</g>
<g>
</g>
<g>
</g>
</svg>
