<?xml version="1.0" encoding="iso-8859-1"?>
<!-- Generator: Adobe Illustrator 19.0.0, SVG Export Plug-In . SVG Version: 6.00 Build 0)  -->
<svg version="1.1" id="Capa_1" xmlns="http://www.w3.org/2000/svg" xmlns:xlink="http://www.w3.org/1999/xlink" x="0px" y="0px"
	 viewBox="0 0 512 512" style="enable-background:new 0 0 512 512;" xml:space="preserve">
<g>
	<polygon style="fill:#EBEBEC;" points="162.002,359.146 96.253,359.146 96.253,204.834 162.002,204.834 162.002,234.834 
		126.253,234.834 126.253,329.146 162.002,329.146 	"/>
	<path style="fill:#EBEBEC;" d="M328.558,184.67H181.374c-26.812,0-48.625-21.813-48.625-48.626
		c0-26.812,21.813-48.625,48.625-48.625c3.112,0,6.211,0.301,9.249,0.891c8.958-12.338,23.397-19.968,39.322-19.968
		c8.889,0,17.532,2.449,25.021,6.942c7.489-4.493,16.132-6.942,25.021-6.942c15.924,0,30.364,7.63,39.322,19.968
		c3.038-0.59,6.137-0.891,9.249-0.891c26.812,0,48.625,21.813,48.625,48.625C377.183,162.857,355.37,184.67,328.558,184.67z"/>
</g>
<g>
	<path style="fill:#CACACD;" d="M328.558,184.67H256c0,0-1.034-90.67-1.034-109.386c7.489-4.493,16.132-6.942,25.021-6.942
		c15.924,0,30.364,7.63,39.322,19.968c3.038-0.59,6.137-0.891,9.249-0.891c26.812,0,48.625,21.813,48.625,48.625
		C377.183,162.857,355.37,184.67,328.558,184.67z"/>
	<path style="fill:#CACACD;" d="M363.424,428.646H147.002V170.397h216.422V428.646z"/>
</g>
<path style="fill:#A9A8AE;" d="M363.424,428.646H256V170.397h107.424V428.646z"/>
<path style="fill:#FBDA35;" d="M363.424,428.646H147.002V217.422h216.422V428.646z"/>
<path style="fill:#F7BA35;" d="M363.424,428.646H256V217.422h107.424V428.646z"/>
<g>
	<circle style="fill:#FDE888;" cx="208.47" cy="296.6" r="15"/>
	<circle style="fill:#FDE888;" cx="219.67" cy="366.78" r="15"/>
</g>
<circle style="fill:#FBDA35;" cx="285.14" cy="344.15" r="15"/>
<path style="fill:#FF7F4B;" d="M437.02,74.98C388.667,26.629,324.38,0,256,0S123.333,26.629,74.98,74.98
	C26.629,123.333,0,187.62,0,256s26.629,132.667,74.98,181.02C123.333,485.371,187.62,512,256,512s132.667-26.629,181.02-74.98
	C485.371,388.667,512,324.38,512,256S485.371,123.333,437.02,74.98z M96.194,415.806C53.508,373.12,30,316.367,30,256
	c0-55.339,19.768-107.633,55.943-148.845l318.902,318.902C363.632,462.232,311.339,482,256,482
	C195.633,482,138.88,458.492,96.194,415.806z M426.057,404.845L107.155,85.942C148.368,49.768,200.661,30,256,30
	c60.367,0,117.12,23.508,159.806,66.194S482,195.633,482,256C482,311.339,462.232,363.633,426.057,404.845z"/>
<path style="fill:#FD5219;" d="M437.02,74.98C388.667,26.629,324.38,0,256,0v30c60.367,0,117.12,23.508,159.806,66.194
	S482,195.633,482,256c0,55.339-19.768,107.633-55.943,148.845L256,234.787v42.426l148.845,148.845
	C363.632,462.232,311.339,482,256,482v30c68.38,0,132.667-26.629,181.02-74.98C485.371,388.667,512,324.38,512,256
	S485.371,123.333,437.02,74.98z"/>
<g>
</g>
<g>
</g>
<g>
</g>
<g>
</g>
<g>
</g>
<g>
</g>
<g>
</g>
<g>
</g>
<g>
</g>
<g>
</g>
<g>
</g>
<g>
</g>
<g>
</g>
<g>
</g>
<g>
</g>
</svg>
