<svg height="512" viewBox="0 0 512 512" width="512" xmlns="http://www.w3.org/2000/svg"><g id="flat"><path d="m360 176-40 256h-128l-40-256z" fill="#8ed2ff"/><path d="m150 136h212a6 6 0 0 1 6 6v34a0 0 0 0 1 0 0h-224a0 0 0 0 1 0 0v-34a6 6 0 0 1 6-6z" fill="#f08b24"/><path d="m352 136h-192l14.491-36.228a6 6 0 0 1 5.571-3.772h151.876a6 6 0 0 1 5.571 3.772z" fill="#fd9226"/><path d="m336 344h-160l-24-128h208z" fill="#e6ccb4"/><path d="m207.99 320a8 8 0 0 1 -7.928-7.009l-4-32a8 8 0 1 1 15.876-1.984l4 32a8 8 0 0 1 -6.946 8.93 8.108 8.108 0 0 1 -1.002.063z" fill="#cdb6a1"/><path d="m200.99 264a8 8 0 0 1 -7.928-7.009l-1-8a8 8 0 1 1 15.876-1.984l1 8a8 8 0 0 1 -6.946 8.93 8.108 8.108 0 0 1 -1.002.063z" fill="#cdb6a1"/><path d="m360 176-2.5 16h-203l-2.5-16z" fill="#0186b2"/><path d="m425.705 86.294a240 240 0 1 0 -339.405 339.412 240 240 0 1 0 339.405-339.412zm-11.313 11.314a223.976 223.976 0 0 1 5.546 311.017l-316.563-316.564a223.977 223.977 0 0 1 311.017 5.547zm-316.784 316.784a223.976 223.976 0 0 1 -5.546-311.017l316.563 316.564a223.977 223.977 0 0 1 -311.017-5.547z" fill="#e13029"/></g></svg>