<svg xmlns="http://www.w3.org/2000/svg" xmlns:xlink="http://www.w3.org/1999/xlink" width="162.039" height="146.254" viewBox="0 0 162.039 146.254">
  <defs>
    <linearGradient id="linear-gradient" x1="0.5" x2="0.5" y2="1" gradientUnits="objectBoundingBox">
      <stop offset="0" stop-color="#ff41df"/>
      <stop offset="0.435" stop-color="#ff7070"/>
      <stop offset="1" stop-color="#ffff58"/>
    </linearGradient>
  </defs>
  <g id="Grupo_15" data-name="Grupo 15" transform="translate(-2675 -580)">
    <g id="heart-simple-shape-silhouette" transform="translate(2678 583)">
      <g id="Trazado_26" data-name="Trazado 26" transform="translate(0 -29.761)" fill="none" stroke-linecap="round">
        <path d="M112.891,29.761c23.829,0,43.148,20.007,43.148,44.679,0,40.78-78.021,94.944-78.021,94.944S0,117.173,0,74.44C0,43.722,19.32,29.761,43.143,29.761A42.619,42.619,0,0,1,78.018,48.208,42.625,42.625,0,0,1,112.891,29.761Z" stroke="none"/>
        <path d="M 43.14344787597656 29.760986328125 C 19.319580078125 29.760986328125 -1.52587890625e-05 43.72247314453125 -1.52587890625e-05 74.44007873535156 C -1.52587890625e-05 117.1731033325195 78.017578125 169.3842468261719 78.017578125 169.3842468261719 C 78.017578125 169.3842468261719 156.0390472412109 115.220817565918 156.0390472412109 74.44045257568359 C 156.0390472412109 49.76838684082031 136.7198333740234 29.760986328125 112.8913345336914 29.760986328125 C 98.54405212402344 29.760986328125 85.86524963378906 37.04940795898438 78.017578125 48.20846557617188 C 70.17098999023438 37.04940795898438 57.49431610107422 29.760986328125 43.14344787597656 29.760986328125 M 43.14344787597656 26.760986328125 C 46.91426849365234 26.760986328125 50.66511535644531 27.23472595214844 54.29179382324219 28.16902160644531 C 57.8104248046875 29.07550048828125 61.22731018066406 30.4188232421875 64.44757843017578 32.16172790527344 C 67.60279083251953 33.86943054199219 70.57355499267578 35.96263122558594 73.27731323242188 38.38316345214844 C 74.96775817871094 39.89653015136719 76.55345916748047 41.53742980957031 78.01773834228516 43.287109375 C 79.48220825195313 41.53744506835938 81.06818389892578 39.89645385742188 82.75885772705078 38.383056640625 C 85.46286010742188 35.96258544921875 88.43381500244141 33.86943054199219 91.58917999267578 32.16171264648438 C 94.80948638916016 30.41883850097656 98.22628784179688 29.07551574707031 101.7446441650391 28.16903686523438 C 105.3710479736328 27.23472595214844 109.121337890625 26.760986328125 112.8913345336914 26.760986328125 C 119.1327056884766 26.760986328125 125.1881637573242 28.02729797363281 130.8895111083984 30.52473449707031 C 136.3875274658203 32.93307495117188 141.3230285644531 36.37832641601563 145.5588989257813 40.76473999023438 C 149.7876434326172 45.14373779296875 153.107177734375 50.241455078125 155.4253082275391 55.91627502441406 C 157.8232269287109 61.78631591796875 159.0390472412109 68.01875305175781 159.0390472412109 74.44045257568359 C 159.0390472412109 79.68280029296875 157.8401184082031 85.36649322509766 155.4755706787109 91.33366394042969 C 153.3731994628906 96.63921356201172 150.2972106933594 102.3006210327148 146.3330383300781 108.1605834960938 C 139.7421875 117.9034042358398 130.5799713134766 128.4051055908203 119.1008758544922 139.3739776611328 C 108.9358367919922 149.0872192382813 98.78281402587891 157.3917541503906 92.05546569824219 162.6480102539063 C 84.75816345214844 168.3495788574219 79.93031311035156 171.7084350585938 79.72837829589844 171.8486175537109 L 78.04855346679688 173.0148010253906 L 76.34907531738281 171.8774566650391 C 76.14688110351563 171.7421722412109 71.31365966796875 168.5 64.01129150390625 162.9464416503906 C 57.28018188476563 157.8273620605469 47.12144470214844 149.7117156982422 36.95046234130859 140.1195678710938 C 25.46331787109375 129.2861328125 16.29452514648438 118.8073425292969 9.698806762695313 108.9742736816406 C 5.733078002929688 103.0620346069336 2.6563720703125 97.30755615234375 0.5541839599609375 91.87066650390625 C -1.804214477539063 85.77116394042969 -3.000015258789063 79.90666961669922 -3.000015258789063 74.44007873535156 C -3.000015258789063 66.63644409179688 -1.790817260742188 59.56257629394531 0.593994140625 53.41499328613281 C 2.878036499023438 47.52719116210938 6.239288330078125 42.47346496582031 10.58442687988281 38.39425659179688 C 14.710205078125 34.52093505859375 19.68452453613281 31.55804443359375 25.36918640136719 29.58786010742188 C 30.78140258789063 27.71208190917969 36.76152801513672 26.760986328125 43.14344787597656 26.760986328125 Z" stroke="none" fill="#fff"/>
      </g>
    </g>
    <g id="heart-simple-shape-silhouette-2" data-name="heart-simple-shape-silhouette" transform="translate(2692 598)">
      <path id="Trazado_26-2" data-name="Trazado 26" d="M92.47,29.761A35.344,35.344,0,0,1,127.813,65.1c0,32.255-63.908,75.1-63.908,75.1S0,98.9,0,65.1C0,40.8,15.825,29.761,35.339,29.761A35.27,35.27,0,0,1,63.9,44.352,35.275,35.275,0,0,1,92.47,29.761Z" transform="translate(0 -29.761)" fill="url(#linear-gradient)"/>
    </g>
  </g>
</svg>
