<svg id="Grupo_16543" data-name="Grupo 16543" xmlns="http://www.w3.org/2000/svg" xmlns:xlink="http://www.w3.org/1999/xlink" width="25.306" height="24.73" viewBox="0 0 25.306 24.73">
  <defs>
    <radialGradient id="radial-gradient" cx="0.236" cy="0.6" r="0.5" gradientUnits="objectBoundingBox">
      <stop offset="0" stop-color="#fca091"/>
      <stop offset="1" stop-color="#fc7c68"/>
    </radialGradient>
    <radialGradient id="radial-gradient-2" cx="0.236" cy="0.6" r="0.5" gradientUnits="objectBoundingBox">
      <stop offset="0" stop-color="#fca091"/>
      <stop offset="1" stop-color="#fc6868"/>
    </radialGradient>
  </defs>
  <path id="Trazado_78406" data-name="Trazado 78406" d="M468.483,1226.942a20.994,20.994,0,0,1-.216,3.258,9.705,9.705,0,0,1-2.057,5.23,10.867,10.867,0,0,1-2.6,2.2c-.622.4-1.266.763-1.9,1.143a.751.751,0,0,1-.812.019,31.552,31.552,0,0,1-2.939-1.868,8.781,8.781,0,0,1-3.457-5.635,30.813,30.813,0,0,1-.413-5.7.52.52,0,0,1,.538-.606,18.32,18.32,0,0,0,2.464-.562,11.08,11.08,0,0,0,3.848-1.942.594.594,0,0,1,.784.046,10.884,10.884,0,0,0,2.624,1.518,17.054,17.054,0,0,0,2.954.819c.258.05.514.109.775.147a.465.465,0,0,1,.413.517C468.48,1225.944,468.483,1226.367,468.483,1226.942Z" transform="translate(-448.687 -1216.422)" fill="url(#radial-gradient)"/>
  <path id="Trazado_78407" data-name="Trazado 78407" d="M621.937,1130.084a.654.654,0,0,1,.44.237c.5.5,1.009.991,1.5,1.5.178.185.289.165.46-.008.86-.873,1.729-1.736,2.6-2.6.4-.394.581-.392.979,0q.775.771,1.547,1.546c.369.371.368.583-.008.96-.865.867-1.73,1.736-2.6,2.595-.172.169-.2.278-.008.458.5.473.979.962,1.457,1.455.379.39.371.576-.01.959-.253.255-.506.51-.763.761-.4.39-.577.39-.981-.01-.488-.483-.975-.967-1.456-1.457-.134-.137-.25-.2-.383-.017a.88.88,0,0,1-.993.306,17.136,17.136,0,0,1-3.09-.786c-.3-.107-.326-.186-.1-.408.5-.5,1.015-.985,1.52-1.48.33-.324.328-.327.01-.645-.471-.471-.943-.939-1.412-1.412-.305-.308-.306-.527,0-.84s.61-.614.92-.917A.6.6,0,0,1,621.937,1130.084Z" transform="translate(-604.43 -1128.919)" fill="url(#radial-gradient-2)"/>
  <path id="Trazado_78408" data-name="Trazado 78408" d="M374.51,1136.842c-.215-.011-.327-.2-.458-.341-.159-.173-.268-.176-.435,0-.476.5-.966.977-1.455,1.459-.389.383-.571.384-.959.006-.288-.28-.573-.563-.851-.852a.5.5,0,0,1,.008-.823c.485-.486.96-.983,1.464-1.449.241-.224.219-.356-.007-.575-.857-.831-1.7-1.682-2.539-2.527-.391-.391-.392-.6-.005-.983q.794-.8,1.593-1.59c.325-.321.541-.321.866,0q1.294,1.284,2.581,2.575c.3.3.305.3.619-.006.466-.461.926-.926,1.391-1.387.347-.344.537-.349.885-.013q.456.441.9.9a.483.483,0,0,1-.005.794c-.49.5-.978.995-1.482,1.476-.207.2-.221.336-.006.541.52.5,1.022,1.01,1.527,1.521.206.209.181.3-.086.4a17.048,17.048,0,0,1-3.462.862Z" transform="translate(-368.982 -1128.924)" fill="url(#radial-gradient-2)"/>
  <path id="Trazado_78409" data-name="Trazado 78409" d="M378.841,1407.485a2.363,2.363,0,0,1,.079-.247c.387-.924.777-1.847,1.163-2.771a2,2,0,0,1,.463-.672q1.577-1.534,3.148-3.075c.24-.235.3-.226.449.083a9.272,9.272,0,0,0,1.72,2.524c.172.173.093.288-.036.423q-.961,1.008-1.918,2.02c-.188.2-.377.4-.555.607a1.835,1.835,0,0,1-.807.533c-1,.36-2,.741-3,1.1A.485.485,0,0,1,378.841,1407.485Z" transform="translate(-378.215 -1383.33)" fill="url(#radial-gradient-2)"/>
  <path id="Trazado_78410" data-name="Trazado 78410" d="M651.784,1407.706a.488.488,0,0,1-.687.468c-.708-.243-1.409-.508-2.112-.764a.846.846,0,0,0-.117-.048,3.884,3.884,0,0,1-2.161-1.4c-.607-.689-1.248-1.349-1.889-2.007-.2-.2-.2-.337,0-.545a9.084,9.084,0,0,0,1.638-2.432c.157-.327.2-.334.462-.082,1.047,1.013,2.089,2.033,3.146,3.037a3.519,3.519,0,0,1,.687,1.235c.335.752.636,1.519.949,2.28C651.74,1407.548,651.766,1407.65,651.784,1407.706Z" transform="translate(-627.184 -1383.483)" fill="url(#radial-gradient-2)"/>
</svg>
