<svg id="skull_1_" data-name="skull (1)" xmlns="http://www.w3.org/2000/svg" xmlns:xlink="http://www.w3.org/1999/xlink" width="29.009" height="23.854" viewBox="0 0 29.009 23.854">
  <defs>
    <linearGradient id="linear-gradient" x1="0.5" y1="1" x2="0.5" gradientUnits="objectBoundingBox">
      <stop offset="0" stop-color="#ffbef9"/>
      <stop offset="1" stop-color="#fff1ff"/>
    </linearGradient>
    <linearGradient id="linear-gradient-2" x1="0.5" y1="1" x2="0.5" gradientUnits="objectBoundingBox">
      <stop offset="0" stop-color="#a93aff"/>
      <stop offset="1" stop-color="#ff81ff"/>
    </linearGradient>
  </defs>
  <g id="Grupo_16550" data-name="Grupo 16550" transform="translate(0 0.74)">
    <g id="Grupo_16549" data-name="Grupo 16549" transform="translate(0)">
      <path id="Trazado_78416" data-name="Trazado 78416" d="M14.5,17.743l-1.7-1.356-2.55,2.55,1.7,4.249h1.7l.85-2.125.85,2.125h1.7l1.7-4.249-2.55-2.55Zm-5.1.344A2.616,2.616,0,0,1,8,17.672a.854.854,0,0,0-1.051.12L3.2,21.543H2.55a2.55,2.55,0,0,0-.74,4.99,2.55,2.55,0,0,0,4.99-.74v-.649l3.324-3.309a.851.851,0,0,0,.175-.954.6.6,0,0,1-.043-.244v-1.7a.849.849,0,0,0-.85-.85ZM19.727,6.6a4.358,4.358,0,0,1,2.018,2.018.85.85,0,0,0,.625.468,19.754,19.754,0,0,0-3.112-3.112.85.85,0,0,0,.468.625ZM26.46,21.543h-.651l-3.752-3.751a.854.854,0,0,0-1.051-.12,2.616,2.616,0,0,1-1.4.415.849.849,0,0,0-.85.85v1.7a.6.6,0,0,1-.043.244.851.851,0,0,0,.175.954l3.324,3.309v.649a2.55,2.55,0,0,0,4.99.74,2.55,2.55,0,0,0-.74-4.99ZM5.9,8.845a.85.85,0,0,0,1.368-.229A4.358,4.358,0,0,1,9.283,6.6a.85.85,0,0,0,.229-1.368Zm1.809,3.293a3.4,3.4,0,1,0,3.4-3.4A3.4,3.4,0,0,0,7.706,12.138Zm10.2,3.4a3.4,3.4,0,1,0-3.4-3.4A3.4,3.4,0,0,0,17.9,15.537Z" transform="translate(0 -5.229)" fill="url(#linear-gradient)"/>
    </g>
  </g>
  <g id="Grupo_16552" data-name="Grupo 16552" transform="translate(5.156)">
    <g id="Grupo_16551" data-name="Grupo 16551">
      <path id="Trazado_78417" data-name="Trazado 78417" d="M109.119,94.383a6.021,6.021,0,0,0-2.821-2.8,6.189,6.189,0,0,0-2.55-.578h-6.8a6.326,6.326,0,0,0-2.567.578,6.022,6.022,0,0,0-2.8,2.822A6.189,6.189,0,0,0,91,96.949v5.1a4.209,4.209,0,0,0,1.955,3.569,4.128,4.128,0,0,0,1.445.595v.935a2.211,2.211,0,0,0,.17.884,2.509,2.509,0,0,0,2.38,1.666h.85v-4.249a.85.85,0,0,1,1.7,0V109.7h1.7v-4.249a.85.85,0,0,1,1.7,0V109.7h.85a2.558,2.558,0,0,0,2.55-2.55v-.935a4.348,4.348,0,0,0,1.462-.595,4.233,4.233,0,0,0,1.938-3.569v-5.1A6.325,6.325,0,0,0,109.119,94.383ZM96.949,101.2a2.55,2.55,0,1,1,2.55-2.55A2.552,2.552,0,0,1,96.949,101.2Zm6.8,0a2.55,2.55,0,1,1,2.55-2.55A2.552,2.552,0,0,1,103.748,101.2Z" transform="translate(-91 -91)" fill="url(#linear-gradient-2)"/>
    </g>
  </g>
</svg>
